<mxfile host="app.diagrams.net" modified="2020-03-24T11:05:54.064Z" agent="Mozilla/5.0 (Macintosh; Intel Mac OS X 10_14_6) AppleWebKit/537.36 (KHTML, like Gecko) Chrome/80.0.3987.149 Safari/537.36" etag="FAkoRymzsBqOdBOnoJLD" version="12.9.0" type="github">
  <diagram name="Page-1" id="74e2e168-ea6b-b213-b513-2b3c1d86103e">
    <mxGraphModel dx="1186" dy="551" grid="1" gridSize="10" guides="1" tooltips="1" connect="1" arrows="1" fold="1" page="1" pageScale="1" pageWidth="1100" pageHeight="850" background="#ffffff" math="0" shadow="0">
      <root>
        <mxCell id="0" />
        <mxCell id="1" parent="0" />
        <mxCell id="77e6c97f196da883-1" value="脚手架业务流程图" style="swimlane;html=1;childLayout=stackLayout;startSize=20;rounded=0;shadow=0;labelBackgroundColor=none;strokeWidth=1;fontFamily=Verdana;fontSize=8;align=center;" parent="1" vertex="1">
          <mxGeometry x="65" y="40" width="970" height="640" as="geometry" />
        </mxCell>
        <mxCell id="iI2FmbBAY16OOEgHfnBO-54" style="edgeStyle=orthogonalEdgeStyle;rounded=0;orthogonalLoop=1;jettySize=auto;html=1;entryX=0;entryY=0.5;entryDx=0;entryDy=0;exitX=0;exitY=0.5;exitDx=0;exitDy=0;verticalAlign=bottom;" parent="77e6c97f196da883-1" source="iI2FmbBAY16OOEgHfnBO-5" target="iI2FmbBAY16OOEgHfnBO-51" edge="1">
          <mxGeometry relative="1" as="geometry">
            <mxPoint x="345" y="200" as="sourcePoint" />
            <mxPoint x="730" y="510" as="targetPoint" />
            <Array as="points">
              <mxPoint x="335" y="200" />
              <mxPoint x="335" y="570" />
            </Array>
          </mxGeometry>
        </mxCell>
        <mxCell id="iI2FmbBAY16OOEgHfnBO-70" value="同步接口" style="text;html=1;align=center;verticalAlign=middle;resizable=0;points=[];labelBackgroundColor=#ffffff;fontSize=8;fontFamily=Verdana;" parent="iI2FmbBAY16OOEgHfnBO-54" vertex="1" connectable="0">
          <mxGeometry x="-0.3486" relative="1" as="geometry">
            <mxPoint y="-9.17" as="offset" />
          </mxGeometry>
        </mxCell>
        <mxCell id="77e6c97f196da883-2" value="事件中心" style="swimlane;html=1;startSize=20;" parent="77e6c97f196da883-1" vertex="1">
          <mxGeometry y="20" width="160" height="620" as="geometry" />
        </mxCell>
        <mxCell id="77e6c97f196da883-8" value="原始事件" style="rounded=1;whiteSpace=wrap;html=1;shadow=0;labelBackgroundColor=none;strokeWidth=1;fontFamily=Verdana;fontSize=8;align=center;" parent="77e6c97f196da883-2" vertex="1">
          <mxGeometry x="20" y="60" width="100" height="60" as="geometry" />
        </mxCell>
        <mxCell id="77e6c97f196da883-9" value="计算事件" style="rounded=1;whiteSpace=wrap;html=1;shadow=0;labelBackgroundColor=none;strokeWidth=1;fontFamily=Verdana;fontSize=8;align=center;" parent="77e6c97f196da883-2" vertex="1">
          <mxGeometry x="20" y="210" width="100" height="60" as="geometry" />
        </mxCell>
        <mxCell id="iI2FmbBAY16OOEgHfnBO-1" value="手工事件" style="rounded=1;whiteSpace=wrap;html=1;shadow=0;labelBackgroundColor=none;strokeWidth=1;fontFamily=Verdana;fontSize=8;align=center;" parent="77e6c97f196da883-2" vertex="1">
          <mxGeometry x="20" y="350" width="100" height="60" as="geometry" />
        </mxCell>
        <mxCell id="77e6c97f196da883-26" style="edgeStyle=orthogonalEdgeStyle;rounded=1;html=1;labelBackgroundColor=none;startArrow=none;startFill=0;startSize=5;endArrow=classicThin;endFill=1;endSize=5;jettySize=auto;orthogonalLoop=1;strokeWidth=1;fontFamily=Verdana;fontSize=8" parent="77e6c97f196da883-1" source="77e6c97f196da883-8" target="77e6c97f196da883-11" edge="1">
          <mxGeometry relative="1" as="geometry" />
        </mxCell>
        <mxCell id="iI2FmbBAY16OOEgHfnBO-25" value="异步推送" style="text;html=1;align=center;verticalAlign=middle;resizable=0;points=[];labelBackgroundColor=#ffffff;" parent="77e6c97f196da883-26" vertex="1" connectable="0">
          <mxGeometry x="-0.1238" relative="1" as="geometry">
            <mxPoint as="offset" />
          </mxGeometry>
        </mxCell>
        <mxCell id="77e6c97f196da883-3" value="计算中心1" style="swimlane;html=1;startSize=20;" parent="77e6c97f196da883-1" vertex="1">
          <mxGeometry x="160" y="20" width="160" height="620" as="geometry" />
        </mxCell>
        <mxCell id="iI2FmbBAY16OOEgHfnBO-15" value="" style="edgeStyle=orthogonalEdgeStyle;rounded=0;orthogonalLoop=1;jettySize=auto;html=1;" parent="77e6c97f196da883-3" source="77e6c97f196da883-11" target="iI2FmbBAY16OOEgHfnBO-2" edge="1">
          <mxGeometry relative="1" as="geometry" />
        </mxCell>
        <mxCell id="77e6c97f196da883-11" value="事件响应&lt;br&gt;（接收）" style="rounded=1;whiteSpace=wrap;html=1;shadow=0;labelBackgroundColor=none;strokeWidth=1;fontFamily=Verdana;fontSize=8;align=center;" parent="77e6c97f196da883-3" vertex="1">
          <mxGeometry x="30" y="60" width="100" height="60" as="geometry" />
        </mxCell>
        <mxCell id="iI2FmbBAY16OOEgHfnBO-16" value="" style="edgeStyle=orthogonalEdgeStyle;rounded=0;orthogonalLoop=1;jettySize=auto;html=1;" parent="77e6c97f196da883-3" source="iI2FmbBAY16OOEgHfnBO-2" target="iI2FmbBAY16OOEgHfnBO-3" edge="1">
          <mxGeometry relative="1" as="geometry" />
        </mxCell>
        <mxCell id="iI2FmbBAY16OOEgHfnBO-2" value="事件处理&lt;br&gt;（计算、业务逻辑加工）" style="rounded=1;whiteSpace=wrap;html=1;shadow=0;labelBackgroundColor=none;strokeWidth=1;fontFamily=Verdana;fontSize=8;align=center;" parent="77e6c97f196da883-3" vertex="1">
          <mxGeometry x="30" y="150" width="100" height="60" as="geometry" />
        </mxCell>
        <mxCell id="iI2FmbBAY16OOEgHfnBO-3" value="事件输出&lt;br&gt;（存储、转发）" style="rounded=1;whiteSpace=wrap;html=1;shadow=0;labelBackgroundColor=none;strokeWidth=1;fontFamily=Verdana;fontSize=8;align=center;" parent="77e6c97f196da883-3" vertex="1">
          <mxGeometry x="30" y="240" width="100" height="60" as="geometry" />
        </mxCell>
        <mxCell id="77e6c97f196da883-4" value="计算中心2" style="swimlane;html=1;startSize=20;" parent="77e6c97f196da883-1" vertex="1">
          <mxGeometry x="320" y="20" width="160" height="620" as="geometry" />
        </mxCell>
        <mxCell id="iI2FmbBAY16OOEgHfnBO-17" value="" style="edgeStyle=orthogonalEdgeStyle;rounded=0;orthogonalLoop=1;jettySize=auto;html=1;" parent="77e6c97f196da883-4" source="77e6c97f196da883-12" target="iI2FmbBAY16OOEgHfnBO-5" edge="1">
          <mxGeometry relative="1" as="geometry" />
        </mxCell>
        <mxCell id="77e6c97f196da883-12" value="&lt;span style=&quot;white-space: normal&quot;&gt;事件响应&lt;/span&gt;&lt;br style=&quot;white-space: normal&quot;&gt;&lt;span style=&quot;white-space: normal&quot;&gt;（接收）&lt;/span&gt;" style="rounded=1;whiteSpace=wrap;html=1;shadow=0;labelBackgroundColor=none;strokeWidth=1;fontFamily=Verdana;fontSize=8;align=center;" parent="77e6c97f196da883-4" vertex="1">
          <mxGeometry x="30" y="60" width="100" height="60" as="geometry" />
        </mxCell>
        <mxCell id="iI2FmbBAY16OOEgHfnBO-18" value="" style="edgeStyle=orthogonalEdgeStyle;rounded=0;orthogonalLoop=1;jettySize=auto;html=1;" parent="77e6c97f196da883-4" source="iI2FmbBAY16OOEgHfnBO-5" target="iI2FmbBAY16OOEgHfnBO-6" edge="1">
          <mxGeometry relative="1" as="geometry" />
        </mxCell>
        <mxCell id="iI2FmbBAY16OOEgHfnBO-5" value="&lt;span style=&quot;white-space: normal&quot;&gt;事件处理&lt;/span&gt;&lt;br style=&quot;white-space: normal&quot;&gt;&lt;span style=&quot;white-space: normal&quot;&gt;（计算、业务逻辑加工）&lt;/span&gt;" style="rounded=1;whiteSpace=wrap;html=1;shadow=0;labelBackgroundColor=none;strokeWidth=1;fontFamily=Verdana;fontSize=8;align=center;" parent="77e6c97f196da883-4" vertex="1">
          <mxGeometry x="30" y="150" width="100" height="60" as="geometry" />
        </mxCell>
        <mxCell id="iI2FmbBAY16OOEgHfnBO-6" value="&lt;span style=&quot;white-space: normal&quot;&gt;事件输出&lt;/span&gt;&lt;br style=&quot;white-space: normal&quot;&gt;&lt;span style=&quot;white-space: normal&quot;&gt;（存储、转发）&lt;/span&gt;" style="rounded=1;whiteSpace=wrap;html=1;shadow=0;labelBackgroundColor=none;strokeWidth=1;fontFamily=Verdana;fontSize=8;align=center;" parent="77e6c97f196da883-4" vertex="1">
          <mxGeometry x="30" y="240" width="100" height="60" as="geometry" />
        </mxCell>
        <mxCell id="77e6c97f196da883-5" value="计算中心3" style="swimlane;html=1;startSize=20;" parent="77e6c97f196da883-1" vertex="1">
          <mxGeometry x="480" y="20" width="160" height="620" as="geometry" />
        </mxCell>
        <mxCell id="iI2FmbBAY16OOEgHfnBO-19" value="" style="edgeStyle=orthogonalEdgeStyle;rounded=0;orthogonalLoop=1;jettySize=auto;html=1;" parent="77e6c97f196da883-5" source="iI2FmbBAY16OOEgHfnBO-12" target="iI2FmbBAY16OOEgHfnBO-13" edge="1">
          <mxGeometry relative="1" as="geometry" />
        </mxCell>
        <mxCell id="iI2FmbBAY16OOEgHfnBO-12" value="&lt;span style=&quot;white-space: normal&quot;&gt;事件响应&lt;/span&gt;&lt;br style=&quot;white-space: normal&quot;&gt;&lt;span style=&quot;white-space: normal&quot;&gt;（接收）&lt;/span&gt;" style="rounded=1;whiteSpace=wrap;html=1;shadow=0;labelBackgroundColor=none;strokeWidth=1;fontFamily=Verdana;fontSize=8;align=center;" parent="77e6c97f196da883-5" vertex="1">
          <mxGeometry x="30" y="60" width="100" height="60" as="geometry" />
        </mxCell>
        <mxCell id="iI2FmbBAY16OOEgHfnBO-20" value="" style="edgeStyle=orthogonalEdgeStyle;rounded=0;orthogonalLoop=1;jettySize=auto;html=1;" parent="77e6c97f196da883-5" source="iI2FmbBAY16OOEgHfnBO-13" target="iI2FmbBAY16OOEgHfnBO-14" edge="1">
          <mxGeometry relative="1" as="geometry" />
        </mxCell>
        <mxCell id="iI2FmbBAY16OOEgHfnBO-13" value="&lt;span style=&quot;white-space: normal&quot;&gt;事件处理&lt;/span&gt;&lt;br style=&quot;white-space: normal&quot;&gt;&lt;span style=&quot;white-space: normal&quot;&gt;（计算、业务逻辑加工）&lt;/span&gt;" style="rounded=1;whiteSpace=wrap;html=1;shadow=0;labelBackgroundColor=none;strokeWidth=1;fontFamily=Verdana;fontSize=8;align=center;" parent="77e6c97f196da883-5" vertex="1">
          <mxGeometry x="30" y="150" width="100" height="60" as="geometry" />
        </mxCell>
        <mxCell id="iI2FmbBAY16OOEgHfnBO-14" value="&lt;span style=&quot;white-space: normal&quot;&gt;事件输出&lt;/span&gt;&lt;br style=&quot;white-space: normal&quot;&gt;&lt;span style=&quot;white-space: normal&quot;&gt;（存储、转发）&lt;/span&gt;" style="rounded=1;whiteSpace=wrap;html=1;shadow=0;labelBackgroundColor=none;strokeWidth=1;fontFamily=Verdana;fontSize=8;align=center;" parent="77e6c97f196da883-5" vertex="1">
          <mxGeometry x="30" y="240" width="100" height="60" as="geometry" />
        </mxCell>
        <mxCell id="iI2FmbBAY16OOEgHfnBO-58" value="外部消费者" style="rounded=1;whiteSpace=wrap;html=1;shadow=0;labelBackgroundColor=none;strokeWidth=1;fontFamily=Verdana;fontSize=8;align=center;dashed=1;" parent="77e6c97f196da883-5" vertex="1">
          <mxGeometry x="30" y="350" width="100" height="60" as="geometry" />
        </mxCell>
        <mxCell id="iI2FmbBAY16OOEgHfnBO-56" style="edgeStyle=elbowEdgeStyle;rounded=0;orthogonalLoop=1;jettySize=auto;elbow=vertical;html=1;entryX=0.5;entryY=0;entryDx=0;entryDy=0;" parent="77e6c97f196da883-5" source="iI2FmbBAY16OOEgHfnBO-14" target="iI2FmbBAY16OOEgHfnBO-58" edge="1">
          <mxGeometry relative="1" as="geometry">
            <mxPoint x="85" y="350" as="targetPoint" />
            <Array as="points">
              <mxPoint x="80" y="320" />
            </Array>
          </mxGeometry>
        </mxCell>
        <mxCell id="iI2FmbBAY16OOEgHfnBO-77" value="异步推送" style="text;html=1;align=center;verticalAlign=middle;resizable=0;points=[];labelBackgroundColor=#ffffff;fontSize=8;fontFamily=Verdana;" parent="iI2FmbBAY16OOEgHfnBO-56" vertex="1" connectable="0">
          <mxGeometry x="-0.2" y="3" relative="1" as="geometry">
            <mxPoint x="-3" y="-3" as="offset" />
          </mxGeometry>
        </mxCell>
        <mxCell id="iI2FmbBAY16OOEgHfnBO-60" value="公共服务&lt;br&gt;（流程编排、日志记录、数据接口、规则接口、任务缓存接口等）" style="rounded=1;whiteSpace=wrap;html=1;shadow=0;dashed=1;strokeWidth=1;fontFamily=Verdana;fontSize=8;" parent="77e6c97f196da883-5" vertex="1">
          <mxGeometry x="-295" y="440" width="440" height="60" as="geometry" />
        </mxCell>
        <mxCell id="77e6c97f196da883-6" value="控制中心" style="swimlane;html=1;startSize=20;" parent="77e6c97f196da883-1" vertex="1">
          <mxGeometry x="640" y="20" width="160" height="620" as="geometry" />
        </mxCell>
        <mxCell id="iI2FmbBAY16OOEgHfnBO-31" value="计算任务下发" style="rounded=1;whiteSpace=wrap;html=1;shadow=0;labelBackgroundColor=none;strokeWidth=1;fontFamily=Verdana;fontSize=8;align=center;" parent="77e6c97f196da883-6" vertex="1">
          <mxGeometry x="30" y="60" width="100" height="60" as="geometry" />
        </mxCell>
        <mxCell id="iI2FmbBAY16OOEgHfnBO-51" value="数据查询接口" style="rounded=1;whiteSpace=wrap;html=1;shadow=0;labelBackgroundColor=none;strokeWidth=1;fontFamily=Verdana;fontSize=8;align=center;" parent="77e6c97f196da883-6" vertex="1">
          <mxGeometry x="30" y="520" width="100" height="60" as="geometry" />
        </mxCell>
        <mxCell id="iI2FmbBAY16OOEgHfnBO-66" value="计算任务查询接口" style="rounded=1;whiteSpace=wrap;html=1;shadow=0;labelBackgroundColor=none;strokeWidth=1;fontFamily=Verdana;fontSize=8;align=center;" parent="77e6c97f196da883-6" vertex="1">
          <mxGeometry x="30" y="520" width="100" height="60" as="geometry" />
        </mxCell>
        <mxCell id="77e6c97f196da883-7" value="数据中心" style="swimlane;html=1;startSize=20;" parent="77e6c97f196da883-1" vertex="1">
          <mxGeometry x="800" y="20" width="170" height="620" as="geometry" />
        </mxCell>
        <mxCell id="iI2FmbBAY16OOEgHfnBO-36" value="决策判断规则&lt;br&gt;配置信息" style="rounded=1;whiteSpace=wrap;html=1;shadow=0;labelBackgroundColor=none;strokeWidth=1;fontFamily=Verdana;fontSize=8;align=center;" parent="77e6c97f196da883-7" vertex="1">
          <mxGeometry x="40" y="170" width="100" height="60" as="geometry" />
        </mxCell>
        <mxCell id="iI2FmbBAY16OOEgHfnBO-38" value="动态指标&lt;br&gt;配置信息" style="rounded=1;whiteSpace=wrap;html=1;shadow=0;labelBackgroundColor=none;strokeWidth=1;fontFamily=Verdana;fontSize=8;align=center;" parent="77e6c97f196da883-7" vertex="1">
          <mxGeometry x="40" y="60" width="100" height="60" as="geometry" />
        </mxCell>
        <mxCell id="iI2FmbBAY16OOEgHfnBO-21" style="edgeStyle=orthogonalEdgeStyle;rounded=0;orthogonalLoop=1;jettySize=auto;html=1;entryX=0;entryY=0.5;entryDx=0;entryDy=0;" parent="77e6c97f196da883-1" source="iI2FmbBAY16OOEgHfnBO-3" target="77e6c97f196da883-12" edge="1">
          <mxGeometry relative="1" as="geometry">
            <Array as="points">
              <mxPoint x="310" y="290" />
              <mxPoint x="310" y="110" />
            </Array>
          </mxGeometry>
        </mxCell>
        <mxCell id="iI2FmbBAY16OOEgHfnBO-71" value="异步推送" style="text;html=1;align=center;verticalAlign=middle;resizable=0;points=[];labelBackgroundColor=#ffffff;fontSize=8;fontFamily=Verdana;" parent="iI2FmbBAY16OOEgHfnBO-21" vertex="1" connectable="0">
          <mxGeometry x="-0.1972" y="3" relative="1" as="geometry">
            <mxPoint as="offset" />
          </mxGeometry>
        </mxCell>
        <mxCell id="iI2FmbBAY16OOEgHfnBO-22" style="edgeStyle=orthogonalEdgeStyle;rounded=0;orthogonalLoop=1;jettySize=auto;html=1;entryX=0;entryY=0.75;entryDx=0;entryDy=0;exitX=1;exitY=0.75;exitDx=0;exitDy=0;" parent="77e6c97f196da883-1" source="iI2FmbBAY16OOEgHfnBO-3" target="iI2FmbBAY16OOEgHfnBO-12" edge="1">
          <mxGeometry relative="1" as="geometry">
            <Array as="points">
              <mxPoint x="300" y="305" />
              <mxPoint x="300" y="330" />
              <mxPoint x="490" y="330" />
              <mxPoint x="490" y="125" />
            </Array>
          </mxGeometry>
        </mxCell>
        <mxCell id="iI2FmbBAY16OOEgHfnBO-75" value="异步推送" style="text;html=1;align=center;verticalAlign=middle;resizable=0;points=[];labelBackgroundColor=#ffffff;fontSize=8;fontFamily=Verdana;" parent="iI2FmbBAY16OOEgHfnBO-22" vertex="1" connectable="0">
          <mxGeometry x="-0.3652" relative="1" as="geometry">
            <mxPoint as="offset" />
          </mxGeometry>
        </mxCell>
        <object label="" id="iI2FmbBAY16OOEgHfnBO-23">
          <mxCell style="edgeStyle=orthogonalEdgeStyle;rounded=0;orthogonalLoop=1;jettySize=auto;html=1;entryX=0;entryY=0.25;entryDx=0;entryDy=0;" parent="77e6c97f196da883-1" source="77e6c97f196da883-9" target="77e6c97f196da883-12" edge="1">
            <mxGeometry relative="1" as="geometry">
              <Array as="points">
                <mxPoint x="10" y="260" />
                <mxPoint x="10" y="70" />
                <mxPoint x="330" y="70" />
                <mxPoint x="330" y="95" />
              </Array>
            </mxGeometry>
          </mxCell>
        </object>
        <mxCell id="iI2FmbBAY16OOEgHfnBO-24" value="补推" style="text;html=1;align=center;verticalAlign=middle;resizable=0;points=[];labelBackgroundColor=#ffffff;" parent="iI2FmbBAY16OOEgHfnBO-23" vertex="1" connectable="0">
          <mxGeometry x="-0.4337" y="3" relative="1" as="geometry">
            <mxPoint x="123" y="-40.03" as="offset" />
          </mxGeometry>
        </mxCell>
        <mxCell id="iI2FmbBAY16OOEgHfnBO-26" style="edgeStyle=orthogonalEdgeStyle;rounded=0;orthogonalLoop=1;jettySize=auto;html=1;entryX=0;entryY=0.5;entryDx=0;entryDy=0;" parent="77e6c97f196da883-1" source="iI2FmbBAY16OOEgHfnBO-6" target="iI2FmbBAY16OOEgHfnBO-12" edge="1">
          <mxGeometry relative="1" as="geometry">
            <Array as="points">
              <mxPoint x="470" y="290" />
              <mxPoint x="470" y="110" />
            </Array>
          </mxGeometry>
        </mxCell>
        <mxCell id="iI2FmbBAY16OOEgHfnBO-76" value="异步推送" style="text;html=1;align=center;verticalAlign=middle;resizable=0;points=[];labelBackgroundColor=#ffffff;fontSize=8;fontFamily=Verdana;" parent="iI2FmbBAY16OOEgHfnBO-26" vertex="1" connectable="0">
          <mxGeometry x="-0.3014" y="3" relative="1" as="geometry">
            <mxPoint x="-2" y="14.17" as="offset" />
          </mxGeometry>
        </mxCell>
        <mxCell id="iI2FmbBAY16OOEgHfnBO-29" style="edgeStyle=orthogonalEdgeStyle;rounded=0;orthogonalLoop=1;jettySize=auto;html=1;entryX=0;entryY=0.75;entryDx=0;entryDy=0;" parent="77e6c97f196da883-1" source="iI2FmbBAY16OOEgHfnBO-1" target="77e6c97f196da883-11" edge="1">
          <mxGeometry relative="1" as="geometry">
            <Array as="points">
              <mxPoint x="150" y="400" />
              <mxPoint x="150" y="125" />
            </Array>
          </mxGeometry>
        </mxCell>
        <mxCell id="iI2FmbBAY16OOEgHfnBO-30" value="人工推送" style="text;html=1;align=center;verticalAlign=middle;resizable=0;points=[];labelBackgroundColor=#ffffff;" parent="iI2FmbBAY16OOEgHfnBO-29" vertex="1" connectable="0">
          <mxGeometry x="-0.2522" y="3" relative="1" as="geometry">
            <mxPoint as="offset" />
          </mxGeometry>
        </mxCell>
        <mxCell id="iI2FmbBAY16OOEgHfnBO-49" style="edgeStyle=orthogonalEdgeStyle;rounded=0;orthogonalLoop=1;jettySize=auto;html=1;entryX=0;entryY=0.5;entryDx=0;entryDy=0;" parent="77e6c97f196da883-1" source="iI2FmbBAY16OOEgHfnBO-31" target="iI2FmbBAY16OOEgHfnBO-38" edge="1">
          <mxGeometry relative="1" as="geometry" />
        </mxCell>
        <mxCell id="iI2FmbBAY16OOEgHfnBO-50" style="edgeStyle=orthogonalEdgeStyle;rounded=0;orthogonalLoop=1;jettySize=auto;html=1;entryX=0;entryY=0.5;entryDx=0;entryDy=0;" parent="77e6c97f196da883-1" source="iI2FmbBAY16OOEgHfnBO-31" target="iI2FmbBAY16OOEgHfnBO-36" edge="1">
          <mxGeometry relative="1" as="geometry">
            <Array as="points">
              <mxPoint x="815" y="110" />
              <mxPoint x="815" y="220" />
            </Array>
          </mxGeometry>
        </mxCell>
        <mxCell id="iI2FmbBAY16OOEgHfnBO-67" value="同步接口" style="text;html=1;align=center;verticalAlign=middle;resizable=0;points=[];labelBackgroundColor=#ffffff;fontSize=8;fontFamily=Verdana;" parent="iI2FmbBAY16OOEgHfnBO-50" vertex="1" connectable="0">
          <mxGeometry x="-0.8948" relative="1" as="geometry">
            <mxPoint x="6.89" as="offset" />
          </mxGeometry>
        </mxCell>
        <mxCell id="iI2FmbBAY16OOEgHfnBO-55" style="edgeStyle=orthogonalEdgeStyle;rounded=0;orthogonalLoop=1;jettySize=auto;html=1;entryX=0;entryY=0.25;entryDx=0;entryDy=0;exitX=1;exitY=0.5;exitDx=0;exitDy=0;" parent="77e6c97f196da883-1" source="iI2FmbBAY16OOEgHfnBO-13" target="iI2FmbBAY16OOEgHfnBO-51" edge="1">
          <mxGeometry relative="1" as="geometry">
            <mxPoint x="460" y="210" as="sourcePoint" />
            <mxPoint x="680" y="490" as="targetPoint" />
            <Array as="points">
              <mxPoint x="650" y="200" />
              <mxPoint x="650" y="555" />
            </Array>
          </mxGeometry>
        </mxCell>
        <mxCell id="iI2FmbBAY16OOEgHfnBO-68" value="同步接口" style="text;html=1;align=center;verticalAlign=middle;resizable=0;points=[];labelBackgroundColor=#ffffff;fontSize=8;fontFamily=Verdana;" parent="iI2FmbBAY16OOEgHfnBO-55" vertex="1" connectable="0">
          <mxGeometry x="-0.8072" y="-36" relative="1" as="geometry">
            <mxPoint x="39" y="36" as="offset" />
          </mxGeometry>
        </mxCell>
        <mxCell id="iI2FmbBAY16OOEgHfnBO-64" style="edgeStyle=elbowEdgeStyle;rounded=0;orthogonalLoop=1;jettySize=auto;elbow=vertical;html=1;entryX=0;entryY=0.75;entryDx=0;entryDy=0;fontFamily=Verdana;fontSize=8;" parent="77e6c97f196da883-1" source="iI2FmbBAY16OOEgHfnBO-2" target="iI2FmbBAY16OOEgHfnBO-51" edge="1">
          <mxGeometry relative="1" as="geometry">
            <Array as="points">
              <mxPoint x="175" y="530" />
              <mxPoint x="395" y="585" />
            </Array>
          </mxGeometry>
        </mxCell>
        <mxCell id="iI2FmbBAY16OOEgHfnBO-69" value="同步接口" style="text;html=1;align=center;verticalAlign=middle;resizable=0;points=[];labelBackgroundColor=#ffffff;fontSize=8;fontFamily=Verdana;" parent="iI2FmbBAY16OOEgHfnBO-64" vertex="1" connectable="0">
          <mxGeometry x="-0.5114" relative="1" as="geometry">
            <mxPoint as="offset" />
          </mxGeometry>
        </mxCell>
      </root>
    </mxGraphModel>
  </diagram>
</mxfile>
